<?xml version="1.0" encoding="utf-8"?>
<!-- Generator: Adobe Illustrator 23.0.1, SVG Export Plug-In . SVG Version: 6.00 Build 0)  -->
<svg version="1.1" id="Layer_1" xmlns="http://www.w3.org/2000/svg" xmlns:xlink="http://www.w3.org/1999/xlink" x="0px" y="0px"
	 viewBox="0 0 3000 3000" style="enable-background:new 0 0 3000 3000;" xml:space="preserve">
<style type="text/css">
	.st0{fill:#FFFFFF;}
	.st1{fill:#ECEBEC;}
	.st2{fill:#3276C8;}
	.st3{opacity:0.51;fill:#ECEBEC;}
	.st4{fill:#3A4042;}
</style>
<g>
	<circle class="st0" cx="1500" cy="1500" r="1472.32"/>
	<path class="st1" d="M1856.15,2178.14h-330.98c-15.54,42.04-35.71,74.07-60.46,96.07c-39.22,34.83-89.54,52.23-150.99,52.23
		c-82.23,0-147.77-29.76-196.57-89.31c-13.48-16.43-25.09-36.08-34.83-58.99c-4.51-10.58-8.62-21.85-12.34-33.82
		c-17.35-55.89-26.02-126.85-26.02-212.86c0-74.64,7.95-136.97,23.83-186.98c3-9.47,6.3-18.49,9.87-27.07
		c9.25-19.47,20.11-36.43,32.62-50.86c47.99-55.35,112.29-83.03,192.94-83.03c60.65,0,109.99,15.95,148,47.78
		c34.64,29.05,57.96,70.99,69.97,125.89h368.39v-402.55H1549.7c-12.8-4.66-26.01-8.91-39.63-12.71
		c-54.89-15.34-116.48-23.65-184.73-24.99v-105.9h-560.6v143.61H438.93l270.15,402.55h25.7c-13.36,60.08-20.04,125.74-20.04,197
		c0,68.51,6.28,131.88,18.86,190.13c2.47,11.47,5.2,22.75,8.17,33.82H450.6c0,0,237.09,400.67,314.13,432.97h1130.5v-432.97H1856.15
		z"/>
	<g>
		<path class="st2" d="M1774.75,1423.18l-398.65,71.98c-13.5-78.9-44.04-138.29-91.66-178.22
			c-47.63-39.88-109.44-59.87-185.44-59.87c-101.05,0-181.63,34.69-241.76,104.03c-60.13,69.34-90.19,185.31-90.19,347.87
			c0,180.73,30.54,308.42,91.7,382.99c61.16,74.62,143.27,111.9,246.3,111.9c77,0,140.06-21.8,189.2-65.45
			c49.1-43.65,83.74-118.74,103.99-225.24l395.88,66.44c-41.18,182.63-120.21,320.57-237.05,413.84
			c-116.88,93.26-273.47,139.85-469.81,139.85c-223.2,0-401.12-70.38-533.74-211.18c-132.67-140.76-198.98-335.67-198.98-584.7
			c0-251.84,66.57-447.92,199.8-588.25c133.19-140.32,313.35-210.49,540.49-210.49c185.92,0,333.72,39.93,443.42,119.69
			C1647.96,1138.21,1726.82,1259.8,1774.75,1423.18z"/>
	</g>
	<rect x="2294.37" y="681.66" class="st3" width="117.57" height="1929.46"/>
	<g>
		<rect x="2125.24" y="987.86" class="st4" width="271.33" height="1538.66"/>
		<rect x="2125.24" y="403.35" class="st4" width="271.33" height="299.56"/>
	</g>
</g>
</svg>
